STARTFONT 2.1
COMMENT
COMMENT  Copyright (c) 1999, Thomas A. Fine
COMMENT
COMMENT  License to copy and distribute for both commercial and
COMMENT  non-commercial use is herby granted, provided this notice
COMMENT  is preserved.
COMMENT
COMMENT  fine@head-cfa.harvard.edu
COMMENT  http://hea-www.harvard.edu/~fine/
COMMENT
COMMENT  Produced with bdfedit, a tcl/tk font editing program
COMMENT  written by Thomas A. Fine
COMMENT
FONT dagger
SIZE 13 72 72
FONTBOUNDINGBOX 9 14 0 -4
STARTPROPERTIES 10
FOUNDRY "Fine"
FAMILY_NAME "dagger"
WEIGHT_NAME "Medium"
SLANT "R"
SETWIDTH_NAME "Normal"
SPACING "c"
CHARSET_REGISTRY "ISO-8859"
CHARSET_ENCODING "1"
FONT_ASCENT  10
FONT_DESCENT 4
ENDPROPERTIES
CHARS 128
STARTCHAR C040
ENCODING 32
SWIDTH 692 0
DWIDTH 9 0
BBX 9 14 0 -4
BITMAP
0000
0000
0000
0000
0000
0000
0000
0000
0000
0000
0000
0000
0000
0000
ENDCHAR
STARTCHAR C041
ENCODING 33
SWIDTH 692 0
DWIDTH 9 0
BBX 9 14 0 -4
BITMAP
0000
1000
1800
1c00
1800
1800
1000
1000
0000
1800
3000
0000
0000
0000
ENDCHAR
STARTCHAR C042
ENCODING 34
SWIDTH 692 0
DWIDTH 9 0
BBX 9 14 0 -4
BITMAP
0000
1400
1400
0000
0000
0000
0000
0000
0000
0000
0000
0000
0000
0000
ENDCHAR
STARTCHAR C043
ENCODING 35
SWIDTH 692 0
DWIDTH 9 0
BBX 9 14 0 -4
BITMAP
3600
1400
5500
7f00
1400
1400
7f00
5500
1400
3600
0000
0000
0000
0000
ENDCHAR
STARTCHAR C044
ENCODING 36
SWIDTH 692 0
DWIDTH 9 0
BBX 9 14 0 -4
BITMAP
0800
0800
1c00
6b00
2900
1c00
4a00
6b00
1c00
0800
0800
0000
0000
0000
ENDCHAR
STARTCHAR C045
ENCODING 37
SWIDTH 692 0
DWIDTH 9 0
BBX 9 14 0 -4
BITMAP
0000
2700
5200
5400
2400
0800
1200
1500
2500
7200
0000
0000
0000
0000
ENDCHAR
STARTCHAR C046
ENCODING 38
SWIDTH 692 0
DWIDTH 9 0
BBX 9 14 0 -4
BITMAP
1000
6c00
4400
6c00
1000
2800
c500
8200
c500
3900
0000
0000
0000
0000
ENDCHAR
STARTCHAR C047
ENCODING 39
SWIDTH 692 0
DWIDTH 9 0
BBX 9 14 0 -4
BITMAP
0000
1800
1000
2000
0000
0000
0000
0000
0000
0000
0000
0000
0000
0000
ENDCHAR
STARTCHAR C050
ENCODING 40
SWIDTH 692 0
DWIDTH 9 0
BBX 9 14 0 -4
BITMAP
0000
0400
0800
0800
0800
0800
0800
0800
0800
0400
0000
0000
0000
0000
ENDCHAR
STARTCHAR C051
ENCODING 41
SWIDTH 692 0
DWIDTH 9 0
BBX 9 14 0 -4
BITMAP
0000
1000
0800
0800
0800
0800
0800
0800
0800
1000
0000
0000
0000
0000
ENDCHAR
STARTCHAR C052
ENCODING 42
SWIDTH 692 0
DWIDTH 9 0
BBX 9 14 0 -4
BITMAP
0000
0000
1c00
0800
6b00
3e00
6b00
0800
1c00
0000
0000
0000
0000
0000
ENDCHAR
STARTCHAR C053
ENCODING 43
SWIDTH 692 0
DWIDTH 9 0
BBX 9 14 0 -4
BITMAP
0000
0000
0000
0800
0800
3e00
0800
0800
0000
0000
0000
0000
0000
0000
ENDCHAR
STARTCHAR C054
ENCODING 44
SWIDTH 692 0
DWIDTH 9 0
BBX 9 14 0 -4
BITMAP
0000
0000
0000
0000
0000
0000
0000
0000
1800
1000
2000
0000
0000
0000
ENDCHAR
STARTCHAR C055
ENCODING 45
SWIDTH 692 0
DWIDTH 9 0
BBX 9 14 0 -4
BITMAP
0000
0000
0000
0000
0000
3e00
0000
0000
0000
0000
0000
0000
0000
0000
ENDCHAR
STARTCHAR C056
ENCODING 46
SWIDTH 692 0
DWIDTH 9 0
BBX 9 14 0 -4
BITMAP
0000
0000
0000
0000
0000
0000
0000
0000
1000
1800
0000
0000
0000
0000
ENDCHAR
STARTCHAR C057
ENCODING 47
SWIDTH 692 0
DWIDTH 9 0
BBX 9 14 0 -4
BITMAP
0000
0000
0100
0200
0400
0800
1000
2000
6000
0000
0000
0000
0000
0000
ENDCHAR
STARTCHAR C060
ENCODING 48
SWIDTH 692 0
DWIDTH 9 0
BBX 9 14 0 -4
BITMAP
0000
0800
1400
6300
4500
4900
5100
6300
1400
0800
0000
0000
0000
0000
ENDCHAR
STARTCHAR C061
ENCODING 49
SWIDTH 692 0
DWIDTH 9 0
BBX 9 14 0 -4
BITMAP
0000
0800
0800
1800
2800
0800
0800
0800
0800
1c00
0000
0000
0000
0000
ENDCHAR
STARTCHAR C062
ENCODING 50
SWIDTH 692 0
DWIDTH 9 0
BBX 9 14 0 -4
BITMAP
0000
1800
2600
4100
2200
0400
0800
1000
2100
7f00
0000
0000
0000
0000
ENDCHAR
STARTCHAR C063
ENCODING 51
SWIDTH 692 0
DWIDTH 9 0
BBX 9 14 0 -4
BITMAP
0000
1800
2600
6300
0200
0400
0200
6300
2600
1800
0000
0000
0000
0000
ENDCHAR
STARTCHAR C064
ENCODING 52
SWIDTH 692 0
DWIDTH 9 0
BBX 9 14 0 -4
BITMAP
0000
0400
0c00
1400
1400
2600
5c00
6400
0400
0e00
0000
0000
0000
0000
ENDCHAR
STARTCHAR C065
ENCODING 53
SWIDTH 692 0
DWIDTH 9 0
BBX 9 14 0 -4
BITMAP
0000
3f00
2100
4800
7400
4300
0100
6300
1400
0800
0000
0000
0000
0000
ENDCHAR
STARTCHAR C066
ENCODING 54
SWIDTH 692 0
DWIDTH 9 0
BBX 9 14 0 -4
BITMAP
0400
0800
1000
2000
4c00
7300
4100
6300
1400
0800
0000
0000
0000
0000
ENDCHAR
STARTCHAR C067
ENCODING 55
SWIDTH 692 0
DWIDTH 9 0
BBX 9 14 0 -4
BITMAP
0000
7f80
4100
2200
0200
0400
0400
0800
0800
1c00
0000
0000
0000
0000
ENDCHAR
STARTCHAR C070
ENCODING 56
SWIDTH 692 0
DWIDTH 9 0
BBX 9 14 0 -4
BITMAP
0000
0800
3600
6300
3600
0800
3600
6300
3600
0800
0000
0000
0000
0000
ENDCHAR
STARTCHAR C071
ENCODING 57
SWIDTH 692 0
DWIDTH 9 0
BBX 9 14 0 -4
BITMAP
0000
0800
1400
6300
4100
6700
1900
0200
0400
0800
1000
0000
0000
0000
ENDCHAR
STARTCHAR C072
ENCODING 58
SWIDTH 692 0
DWIDTH 9 0
BBX 9 14 0 -4
BITMAP
0000
0000
3000
1800
0000
0000
0000
0000
3000
1800
0000
0000
0000
0000
ENDCHAR
STARTCHAR C073
ENCODING 59
SWIDTH 692 0
DWIDTH 9 0
BBX 9 14 0 -4
BITMAP
0000
0000
3000
1800
0000
0000
0000
0000
1800
1000
2000
0000
0000
0000
ENDCHAR
STARTCHAR C074
ENCODING 60
SWIDTH 692 0
DWIDTH 9 0
BBX 9 14 0 -4
BITMAP
0000
0600
0400
0800
1000
2000
1000
0800
0400
0600
0000
0000
0000
0000
ENDCHAR
STARTCHAR C075
ENCODING 61
SWIDTH 692 0
DWIDTH 9 0
BBX 9 14 0 -4
BITMAP
0000
0000
0000
0000
3e00
0000
3e00
0000
0000
0000
0000
0000
0000
0000
ENDCHAR
STARTCHAR C076
ENCODING 62
SWIDTH 692 0
DWIDTH 9 0
BBX 9 14 0 -4
BITMAP
0000
3000
1000
0800
0400
0200
0400
0800
1000
3000
0000
0000
0000
0000
ENDCHAR
STARTCHAR C077
ENCODING 63
SWIDTH 692 0
DWIDTH 9 0
BBX 9 14 0 -4
BITMAP
0000
0800
1400
6300
4600
0800
1800
0800
0000
0800
0000
0000
0000
0000
ENDCHAR
STARTCHAR C100
ENCODING 64
SWIDTH 692 0
DWIDTH 9 0
BBX 9 14 0 -4
BITMAP
0000
0800
1400
6300
4900
5700
4800
6000
1400
0800
0000
0000
0000
0000
ENDCHAR
STARTCHAR C101
ENCODING 65
SWIDTH 692 0
DWIDTH 9 0
BBX 9 14 0 -4
BITMAP
0000
1800
2800
1400
1400
2380
7e00
c100
4100
e380
0000
0000
0000
0000
ENDCHAR
STARTCHAR C102
ENCODING 66
SWIDTH 692 0
DWIDTH 9 0
BBX 9 14 0 -4
BITMAP
0000
7e00
a100
2200
2600
2900
3080
2100
2100
fe00
0000
0000
0000
0000
ENDCHAR
STARTCHAR C103
ENCODING 67
SWIDTH 692 0
DWIDTH 9 0
BBX 9 14 0 -4
BITMAP
0000
0800
1500
6300
4000
4000
4000
6100
1600
0800
0000
0000
0000
0000
ENDCHAR
STARTCHAR C104
ENCODING 68
SWIDTH 692 0
DWIDTH 9 0
BBX 9 14 0 -4
BITMAP
0000
7800
a400
2200
2100
2080
2080
2100
2200
fc00
0000
0000
0000
0000
ENDCHAR
STARTCHAR C105
ENCODING 69
SWIDTH 692 0
DWIDTH 9 0
BBX 9 14 0 -4
BITMAP
0000
7f00
a100
2100
2400
3e00
2400
2100
2100
ff00
0000
0000
0000
0000
ENDCHAR
STARTCHAR C106
ENCODING 70
SWIDTH 692 0
DWIDTH 9 0
BBX 9 14 0 -4
BITMAP
0000
7f00
a100
2100
2400
3e00
2400
2000
2000
f800
0000
0000
0000
0000
ENDCHAR
STARTCHAR C107
ENCODING 71
SWIDTH 692 0
DWIDTH 9 0
BBX 9 14 0 -4
BITMAP
0000
0800
1500
6300
4000
4800
4600
6100
1680
0800
0000
0000
0000
0000
ENDCHAR
STARTCHAR C110
ENCODING 72
SWIDTH 692 0
DWIDTH 9 0
BBX 9 14 0 -4
BITMAP
0000
6300
a280
2200
2300
2e00
7200
2200
2200
7700
0000
0000
0000
0000
ENDCHAR
STARTCHAR C111
ENCODING 73
SWIDTH 692 0
DWIDTH 9 0
BBX 9 14 0 -4
BITMAP
0000
7f00
2a00
0800
0800
0800
0800
0800
2a00
7f00
0000
0000
0000
0000
ENDCHAR
STARTCHAR C112
ENCODING 74
SWIDTH 692 0
DWIDTH 9 0
BBX 9 14 0 -4
BITMAP
0000
0300
0280
0200
0200
0200
2200
4200
2400
1800
0000
0000
0000
0000
ENDCHAR
STARTCHAR C113
ENCODING 75
SWIDTH 692 0
DWIDTH 9 0
BBX 9 14 0 -4
BITMAP
0000
6080
a900
2a00
2400
2a00
3200
2100
2100
7180
0000
0000
0000
0000
ENDCHAR
STARTCHAR C114
ENCODING 76
SWIDTH 692 0
DWIDTH 9 0
BBX 9 14 0 -4
BITMAP
0000
6000
a000
2000
2000
2000
2000
2200
2100
ff00
0000
0000
0000
0000
ENDCHAR
STARTCHAR C115
ENCODING 77
SWIDTH 692 0
DWIDTH 9 0
BBX 9 14 0 -4
BITMAP
0000
6300
b680
3600
2a00
2a00
2200
2200
2200
7700
0000
0000
0000
0000
ENDCHAR
STARTCHAR C116
ENCODING 78
SWIDTH 692 0
DWIDTH 9 0
BBX 9 14 0 -4
BITMAP
0000
6380
b100
3100
2900
2d00
2500
2300
2300
7100
0000
0000
0000
0000
ENDCHAR
STARTCHAR C117
ENCODING 79
SWIDTH 692 0
DWIDTH 9 0
BBX 9 14 0 -4
BITMAP
0000
0800
1400
6300
4100
4100
4100
6300
1400
0800
0000
0000
0000
0000
ENDCHAR
STARTCHAR C120
ENCODING 80
SWIDTH 692 0
DWIDTH 9 0
BBX 9 14 0 -4
BITMAP
0000
7e00
a100
2200
2400
2800
3000
2000
2000
f800
0000
0000
0000
0000
ENDCHAR
STARTCHAR C121
ENCODING 81
SWIDTH 692 0
DWIDTH 9 0
BBX 9 14 0 -4
BITMAP
0000
0800
1400
6300
4100
4100
4900
6700
1600
0900
0000
0000
0000
0000
ENDCHAR
STARTCHAR C122
ENCODING 82
SWIDTH 692 0
DWIDTH 9 0
BBX 9 14 0 -4
BITMAP
0000
7c00
a200
2a00
2400
2a00
3200
2100
2100
7180
0000
0000
0000
0000
ENDCHAR
STARTCHAR C123
ENCODING 83
SWIDTH 692 0
DWIDTH 9 0
BBX 9 14 0 -4
BITMAP
0000
0800
1400
6300
3100
0800
4600
6300
1400
0800
0000
0000
0000
0000
ENDCHAR
STARTCHAR C124
ENCODING 84
SWIDTH 692 0
DWIDTH 9 0
BBX 9 14 0 -4
BITMAP
0000
ff80
8880
4900
0800
0800
0800
0800
0800
1c00
0000
0000
0000
0000
ENDCHAR
STARTCHAR C125
ENCODING 85
SWIDTH 692 0
DWIDTH 9 0
BBX 9 14 0 -4
BITMAP
0000
4100
c180
4100
4100
4100
4100
4100
3600
0800
0000
0000
0000
0000
ENDCHAR
STARTCHAR C126
ENCODING 86
SWIDTH 692 0
DWIDTH 9 0
BBX 9 14 0 -4
BITMAP
0000
6300
a280
2200
2200
1400
1400
1400
0800
0800
0000
0000
0000
0000
ENDCHAR
STARTCHAR C127
ENCODING 87
SWIDTH 692 0
DWIDTH 9 0
BBX 9 14 0 -4
BITMAP
0000
6300
a280
2200
2a00
2a00
2a00
3600
2200
2200
0000
0000
0000
0000
ENDCHAR
STARTCHAR C130
ENCODING 88
SWIDTH 692 0
DWIDTH 9 0
BBX 9 14 0 -4
BITMAP
0100
2200
6200
1400
1400
0800
1400
1400
2200
7700
0000
0000
0000
0000
ENDCHAR
STARTCHAR C131
ENCODING 89
SWIDTH 692 0
DWIDTH 9 0
BBX 9 14 0 -4
BITMAP
0000
6300
a280
1400
1400
0800
0800
0800
0800
1c00
0000
0000
0000
0000
ENDCHAR
STARTCHAR C132
ENCODING 90
SWIDTH 692 0
DWIDTH 9 0
BBX 9 14 0 -4
BITMAP
0000
7f00
4200
2400
0400
0800
1000
1200
2100
7f00
0000
0000
0000
0000
ENDCHAR
STARTCHAR C133
ENCODING 91
SWIDTH 692 0
DWIDTH 9 0
BBX 9 14 0 -4
BITMAP
0200
0c00
0800
0800
0800
0800
0800
0800
0800
0c00
0200
0000
0000
0000
ENDCHAR
STARTCHAR C134
ENCODING 92
SWIDTH 692 0
DWIDTH 9 0
BBX 9 14 0 -4
BITMAP
0000
0000
4000
2000
1000
0800
0400
0200
0300
0000
0000
0000
0000
0000
ENDCHAR
STARTCHAR C135
ENCODING 93
SWIDTH 692 0
DWIDTH 9 0
BBX 9 14 0 -4
BITMAP
2000
1800
0800
0800
0800
0800
0800
0800
0800
1800
2000
0000
0000
0000
ENDCHAR
STARTCHAR C136
ENCODING 94
SWIDTH 692 0
DWIDTH 9 0
BBX 9 14 0 -4
BITMAP
0000
0000
0800
1400
3600
0000
0000
0000
0000
0000
0000
0000
0000
0000
ENDCHAR
STARTCHAR C137
ENCODING 95
SWIDTH 692 0
DWIDTH 9 0
BBX 9 14 0 -4
BITMAP
0000
0000
0000
0000
0000
0000
0000
0000
0000
0000
ff00
0080
0000
0000
ENDCHAR
STARTCHAR C140
ENCODING 96
SWIDTH 692 0
DWIDTH 9 0
BBX 9 14 0 -4
BITMAP
0000
0c00
0400
0200
0000
0000
0000
0000
0000
0000
0000
0000
0000
0000
ENDCHAR
STARTCHAR C141
ENCODING 97
SWIDTH 692 0
DWIDTH 9 0
BBX 9 14 0 -4
BITMAP
0000
0000
0000
0800
3400
2300
0d00
3100
4700
3980
0000
0000
0000
0000
ENDCHAR
STARTCHAR C142
ENCODING 98
SWIDTH 692 0
DWIDTH 9 0
BBX 9 14 0 -4
BITMAP
0000
2000
6000
2400
2a00
3100
2100
3100
2a00
7400
0000
0000
0000
0000
ENDCHAR
STARTCHAR C143
ENCODING 99
SWIDTH 692 0
DWIDTH 9 0
BBX 9 14 0 -4
BITMAP
0000
0000
0000
0800
1600
6200
4000
6200
1600
0800
0000
0000
0000
0000
ENDCHAR
STARTCHAR C144
ENCODING 100
SWIDTH 692 0
DWIDTH 9 0
BBX 9 14 0 -4
BITMAP
0000
0200
0600
1200
2a00
4600
4200
4600
2b00
1200
0000
0000
0000
0000
ENDCHAR
STARTCHAR C145
ENCODING 101
SWIDTH 692 0
DWIDTH 9 0
BBX 9 14 0 -4
BITMAP
0000
0000
0000
0800
1600
6400
4800
7200
1600
0800
0000
0000
0000
0000
ENDCHAR
STARTCHAR C146
ENCODING 102
SWIDTH 692 0
DWIDTH 9 0
BBX 9 14 0 -4
BITMAP
0000
0400
0a00
1100
1200
1000
3c00
7000
1000
3800
0000
0000
0000
0000
ENDCHAR
STARTCHAR C147
ENCODING 103
SWIDTH 692 0
DWIDTH 9 0
BBX 9 14 0 -4
BITMAP
0000
0000
0000
0800
1700
6200
4100
6300
1400
0a00
0100
1e00
6300
1c00
ENDCHAR
STARTCHAR C150
ENCODING 104
SWIDTH 692 0
DWIDTH 9 0
BBX 9 14 0 -4
BITMAP
0000
2000
6000
2400
2a00
3100
2100
2100
2100
7380
0000
0000
0000
0000
ENDCHAR
STARTCHAR C151
ENCODING 105
SWIDTH 692 0
DWIDTH 9 0
BBX 9 14 0 -4
BITMAP
0000
0800
1800
0000
0800
1800
0800
0800
0800
1c00
0000
0000
0000
0000
ENDCHAR
STARTCHAR C152
ENCODING 106
SWIDTH 692 0
DWIDTH 9 0
BBX 9 14 0 -4
BITMAP
0000
0800
1800
0000
0800
1800
0800
0800
0800
0800
0800
4800
2800
1000
ENDCHAR
STARTCHAR C153
ENCODING 107
SWIDTH 692 0
DWIDTH 9 0
BBX 9 14 0 -4
BITMAP
0000
2000
6000
2100
2a00
2400
2a00
3200
2100
7180
0000
0000
0000
0000
ENDCHAR
STARTCHAR C154
ENCODING 108
SWIDTH 692 0
DWIDTH 9 0
BBX 9 14 0 -4
BITMAP
0000
0800
1800
0800
0800
0800
0800
0800
0800
1c00
0000
0000
0000
0000
ENDCHAR
STARTCHAR C155
ENCODING 109
SWIDTH 692 0
DWIDTH 9 0
BBX 9 14 0 -4
BITMAP
0000
0000
0000
5200
ed00
4900
4900
4900
4900
eb80
0000
0000
0000
0000
ENDCHAR
STARTCHAR C156
ENCODING 110
SWIDTH 692 0
DWIDTH 9 0
BBX 9 14 0 -4
BITMAP
0000
0000
0000
2400
6a00
3100
2100
2100
2100
7380
0000
0000
0000
0000
ENDCHAR
STARTCHAR C157
ENCODING 111
SWIDTH 692 0
DWIDTH 9 0
BBX 9 14 0 -4
BITMAP
0000
0000
0000
0800
1400
6300
4100
6300
1400
0800
0000
0000
0000
0000
ENDCHAR
STARTCHAR C160
ENCODING 112
SWIDTH 692 0
DWIDTH 9 0
BBX 9 14 0 -4
BITMAP
0000
0000
0000
2400
6a00
3100
2100
3100
2a00
2400
2000
2000
6000
2000
ENDCHAR
STARTCHAR C161
ENCODING 113
SWIDTH 692 0
DWIDTH 9 0
BBX 9 14 0 -4
BITMAP
0000
0000
0000
1200
2e00
4600
4200
4600
2a00
1200
0200
0200
0300
0200
ENDCHAR
STARTCHAR C162
ENCODING 114
SWIDTH 692 0
DWIDTH 9 0
BBX 9 14 0 -4
BITMAP
0000
0000
0000
2400
6a00
3100
2200
2000
2000
7000
0000
0000
0000
0000
ENDCHAR
STARTCHAR C163
ENCODING 115
SWIDTH 692 0
DWIDTH 9 0
BBX 9 14 0 -4
BITMAP
0000
0000
0000
0800
1600
6000
1c00
0300
3400
0800
0000
0000
0000
0000
ENDCHAR
STARTCHAR C164
ENCODING 116
SWIDTH 692 0
DWIDTH 9 0
BBX 9 14 0 -4
BITMAP
0000
1000
1000
1000
1000
3c00
7000
1000
1200
1c00
0000
0000
0000
0000
ENDCHAR
STARTCHAR C165
ENCODING 117
SWIDTH 692 0
DWIDTH 9 0
BBX 9 14 0 -4
BITMAP
0000
0000
0000
2200
6300
2200
2200
2200
3e00
0800
0000
0000
0000
0000
ENDCHAR
STARTCHAR C166
ENCODING 118
SWIDTH 692 0
DWIDTH 9 0
BBX 9 14 0 -4
BITMAP
0000
0000
0000
2200
6300
2200
1400
1400
0800
0800
0000
0000
0000
0000
ENDCHAR
STARTCHAR C167
ENCODING 119
SWIDTH 692 0
DWIDTH 9 0
BBX 9 14 0 -4
BITMAP
0000
0000
0000
4100
c180
2a00
2a00
1400
1400
3600
0000
0000
0000
0000
ENDCHAR
STARTCHAR C170
ENCODING 120
SWIDTH 692 0
DWIDTH 9 0
BBX 9 14 0 -4
BITMAP
0000
0000
0000
2100
6200
1400
0800
1400
2200
7700
0000
0000
0000
0000
ENDCHAR
STARTCHAR C171
ENCODING 121
SWIDTH 692 0
DWIDTH 9 0
BBX 9 14 0 -4
BITMAP
0000
0000
0000
2200
6200
1400
1400
0800
0800
1400
1000
2000
4000
0000
ENDCHAR
STARTCHAR C172
ENCODING 122
SWIDTH 692 0
DWIDTH 9 0
BBX 9 14 0 -4
BITMAP
0000
0000
0000
7f00
2200
0400
0800
1000
2200
7f00
0000
0000
0000
0000
ENDCHAR
STARTCHAR C173
ENCODING 123
SWIDTH 692 0
DWIDTH 9 0
BBX 9 14 0 -4
BITMAP
0200
0c00
0800
0800
0800
3000
0800
0800
0800
0c00
0200
0000
0000
0000
ENDCHAR
STARTCHAR C174
ENCODING 124
SWIDTH 692 0
DWIDTH 9 0
BBX 9 14 0 -4
BITMAP
0800
1c00
0000
0800
0800
0800
0800
0800
0800
0800
0000
1c00
0800
0000
ENDCHAR
STARTCHAR C175
ENCODING 125
SWIDTH 692 0
DWIDTH 9 0
BBX 9 14 0 -4
BITMAP
2000
1800
0800
0800
0800
0600
0800
0800
0800
1800
2000
0000
0000
0000
ENDCHAR
STARTCHAR C176
ENCODING 126
SWIDTH 692 0
DWIDTH 9 0
BBX 9 14 0 -4
BITMAP
0000
0000
3100
2a00
4600
0000
0000
0000
0000
0000
0000
0000
0000
0000
ENDCHAR
STARTCHAR C241
ENCODING 161
SWIDTH 692 0
DWIDTH 9 0
BBX 9 14 0 -4
BITMAP
0000
1000
1800
1c00
1800
1800
1000
1000
0000
1800
3000
0000
0000
0000
ENDCHAR
STARTCHAR C242
ENCODING 162
SWIDTH 692 0
DWIDTH 9 0
BBX 9 14 0 -4
BITMAP
0000
0000
0c00
0800
1600
6a00
4800
6a00
1600
0800
1800
0000
0000
0000
ENDCHAR
STARTCHAR C243
ENCODING 163
SWIDTH 692 0
DWIDTH 9 0
BBX 9 14 0 -4
BITMAP
0000
3000
2800
2400
a000
f800
a000
2200
2100
bf00
c000
0000
0000
0000
ENDCHAR
STARTCHAR C244
ENCODING 164
SWIDTH 692 0
DWIDTH 9 0
BBX 9 14 0 -4
BITMAP
0000
0000
4100
2a00
1400
2200
1400
2a00
4100
0000
0000
0000
0000
0000
ENDCHAR
STARTCHAR C245
ENCODING 165
SWIDTH 692 0
DWIDTH 9 0
BBX 9 14 0 -4
BITMAP
0000
6300
a280
1400
1500
7f00
0800
7f00
4800
1c00
0000
0000
0000
0000
ENDCHAR
STARTCHAR C246
ENCODING 166
SWIDTH 692 0
DWIDTH 9 0
BBX 9 14 0 -4
BITMAP
0000
0800
0800
0800
0800
0000
0800
0800
0800
0800
0000
0000
0000
0000
ENDCHAR
STARTCHAR C247
ENCODING 167
SWIDTH 692 0
DWIDTH 9 0
BBX 9 14 0 -4
BITMAP
0800
1600
6000
1800
1400
6300
6300
1400
0c00
0300
3400
0800
0000
0000
ENDCHAR
STARTCHAR C250
ENCODING 168
SWIDTH 692 0
DWIDTH 9 0
BBX 9 14 0 -4
BITMAP
7700
2200
0000
0000
0000
0000
0000
0000
0000
0000
0000
0000
0000
0000
ENDCHAR
STARTCHAR C251
ENCODING 169
SWIDTH 692 0
DWIDTH 9 0
BBX 9 14 0 -4
BITMAP
0800
1400
2200
c180
8880
9680
a080
9680
8880
c180
2200
1400
0800
0000
ENDCHAR
STARTCHAR C253
ENCODING 171
SWIDTH 692 0
DWIDTH 9 0
BBX 9 14 0 -4
BITMAP
0000
0000
0000
1100
3300
cc00
3300
1100
0000
0000
0000
0000
0000
0000
ENDCHAR
STARTCHAR C254
ENCODING 172
SWIDTH 692 0
DWIDTH 9 0
BBX 9 14 0 -4
BITMAP
0000
0000
0000
0000
0000
0200
fe00
0200
0200
0600
0200
0000
0000
0000
ENDCHAR
STARTCHAR C256
ENCODING 174
SWIDTH 692 0
DWIDTH 9 0
BBX 9 14 0 -4
BITMAP
0800
1400
2200
c180
9c80
b280
9480
9a80
9280
c180
2200
1400
0800
0000
ENDCHAR
STARTCHAR C260
ENCODING 176
SWIDTH 692 0
DWIDTH 9 0
BBX 9 14 0 -4
BITMAP
0800
1400
2200
1400
0800
0000
0000
0000
0000
0000
0000
0000
0000
0000
ENDCHAR
STARTCHAR C262
ENCODING 178
SWIDTH 692 0
DWIDTH 9 0
BBX 9 14 0 -4
BITMAP
1000
2800
2400
0800
1000
3c00
0000
0000
0000
0000
0000
0000
0000
0000
ENDCHAR
STARTCHAR C263
ENCODING 179
SWIDTH 692 0
DWIDTH 9 0
BBX 9 14 0 -4
BITMAP
1800
2600
0800
0400
2600
1800
0000
0000
0000
0000
0000
0000
0000
0000
ENDCHAR
STARTCHAR C265
ENCODING 181
SWIDTH 692 0
DWIDTH 9 0
BBX 9 14 0 -4
BITMAP
0000
0000
0000
0000
2200
2300
2200
2200
3200
2e00
2100
2000
6000
2000
ENDCHAR
STARTCHAR C266
ENCODING 182
SWIDTH 692 0
DWIDTH 9 0
BBX 9 14 0 -4
BITMAP
0000
7e00
f500
7400
3400
1400
1400
1400
1400
7f00
0000
0000
0000
0000
ENDCHAR
STARTCHAR C267
ENCODING 183
SWIDTH 692 0
DWIDTH 9 0
BBX 9 14 0 -4
BITMAP
0000
0000
0000
0000
0000
0800
1800
0000
0000
0000
0000
0000
0000
0000
ENDCHAR
STARTCHAR C271
ENCODING 185
SWIDTH 692 0
DWIDTH 9 0
BBX 9 14 0 -4
BITMAP
0800
1800
2800
0800
0800
1c00
0000
0000
0000
0000
0000
0000
0000
0000
ENDCHAR
STARTCHAR C272
ENCODING 186
SWIDTH 692 0
DWIDTH 9 0
BBX 9 14 0 -4
BITMAP
0800
1400
2200
1400
0800
0000
3e00
0000
0000
0000
0000
0000
0000
0000
ENDCHAR
STARTCHAR C273
ENCODING 187
SWIDTH 692 0
DWIDTH 9 0
BBX 9 14 0 -4
BITMAP
0000
0000
0000
8800
cc00
3300
cc00
8800
0000
0000
0000
0000
0000
0000
ENDCHAR
STARTCHAR C274
ENCODING 188
SWIDTH 692 0
DWIDTH 9 0
BBX 9 14 0 -4
BITMAP
2000
6000
a100
2200
7400
0900
1300
2500
4f00
c100
0380
0000
0000
0000
ENDCHAR
STARTCHAR C275
ENCODING 189
SWIDTH 692 0
DWIDTH 9 0
BBX 9 14 0 -4
BITMAP
2000
6000
a100
2200
7400
0a00
1500
2480
4100
c200
0780
0000
0000
0000
ENDCHAR
STARTCHAR C276
ENCODING 190
SWIDTH 692 0
DWIDTH 9 0
BBX 9 14 0 -4
BITMAP
c000
3000
e100
2200
3400
c900
1300
2500
4f00
c100
0380
0000
0000
0000
ENDCHAR
STARTCHAR C277
ENCODING 191
SWIDTH 692 0
DWIDTH 9 0
BBX 9 14 0 -4
BITMAP
0000
0800
0000
0800
0c00
0800
3100
6300
1400
0800
0000
0000
0000
0000
ENDCHAR
STARTCHAR C306
ENCODING 198
SWIDTH 692 0
DWIDTH 9 0
BBX 9 14 0 -4
BITMAP
0000
1f80
2880
1800
1a00
2f00
7a00
c800
4880
ef80
0000
0000
0000
0000
ENDCHAR
STARTCHAR C307
ENCODING 199
SWIDTH 692 0
DWIDTH 9 0
BBX 9 14 0 -4
BITMAP
0000
0800
1500
6300
4000
4000
4000
6100
1600
0800
0800
1800
0800
0000
ENDCHAR
STARTCHAR C321
ENCODING 209
SWIDTH 692 0
DWIDTH 9 0
BBX 9 14 0 -4
BITMAP
3100
2a00
4600
0000
7380
a900
2500
2300
2100
7100
0000
0000
0000
0000
ENDCHAR
STARTCHAR C336
ENCODING 222
SWIDTH 692 0
DWIDTH 9 0
BBX 9 14 0 -4
BITMAP
2000
6000
2000
3c00
2400
2200
2400
3c00
2000
2000
2000
2000
0000
0000
ENDCHAR
STARTCHAR C346
ENCODING 230
SWIDTH 692 0
DWIDTH 9 0
BBX 9 14 0 -4
BITMAP
0000
0000
0000
1200
6d80
4900
3a00
4c00
9a80
6300
0000
0000
0000
0000
ENDCHAR
STARTCHAR C347
ENCODING 231
SWIDTH 692 0
DWIDTH 9 0
BBX 9 14 0 -4
BITMAP
0000
0000
0000
0800
1600
6200
4000
6200
1600
0800
1800
0800
0000
0000
ENDCHAR
STARTCHAR C361
ENCODING 241
SWIDTH 692 0
DWIDTH 9 0
BBX 9 14 0 -4
BITMAP
3100
2a00
4600
0000
2400
6a00
3100
2100
2100
7380
0000
0000
0000
0000
ENDCHAR
STARTCHAR C376
ENCODING 254
SWIDTH 692 0
DWIDTH 9 0
BBX 9 14 0 -4
BITMAP
2000
6000
2000
2800
3400
2200
3400
2800
2000
2000
2000
2000
0000
0000
ENDCHAR
ENDFONT
